<svg height="352" width="626" xmlns="http://www.w3.org/2000/svg"><g fill="none" fill-rule="evenodd"><path d="m0 352h626v-352h-626z" fill="none"/><path d="m255.5205 291.2007 44.423-25.536c3.845-2.21 8.595-2.12 12.352.235l3.618 2.266c3.764 2.36 8.524 2.446 12.372.224l18.336-10.586c3.871-2.235 4.026-7.767.287-10.216-3.324-2.176-3.18-7.092.263-9.071l123.983-71.27c.619-.355 1.38-.355 1.997.002l22.785 13.155c4 2.31 4 8.083 0 10.393l-40.437 23.346" stroke="#e5e6e8" stroke-width="2"/><path d="m455.499 99.4565-199.979 114.954-43.882-25.345c-3.713-2.144-8.288-2.145-12.002-.001l-60.51 34.935" stroke="#425066" stroke-width="2"/><path d="m455.499 22.1421-24.701 14.261c-4 2.309-4 8.083 0 10.392l15.256 8.808c4 2.31 4 8.083 0 10.393l-20.868 12.048a6.0012 6.0012 0 0 1 -5.979.012l-24.394-13.949c-3.71-2.122-8.267-2.11-11.966.031l-137.749 79.705c-3.714 2.149-8.294 2.151-12.01.005l-87.962-50.785c-3.713-2.143-8.287-2.143-12 0l-34.317 19.814c-3.988 2.302-4.003 8.052-.029 10.376l90.23 52.747" stroke="#e5e6e8" stroke-width="2"/><path d="m488.9307 118.041-24.633 14.363c-3.95 2.304-3.975 8.002-.046 10.34l31.439 18.708c3.933 2.341 3.902 8.047-.057 10.345l-51.022 29.612c-3.72 2.159-8.311 2.162-12.033.008l-37.953-21.957c-3.718-2.165-8.311-2.173-12.038-.022l-154.323 89.098c-3.713 2.144-8.287 2.144-12 0l-43.883-25.336" stroke="#ff6f00" stroke-width="2"/><path d="m438.457 224.0186-27.296 15.729c-3.708 2.137-8.274 2.137-11.982 0l-21.218-12.227c-3.755-2.163-8.385-2.134-12.112.076l-10.141 6.013" stroke="#e5e6e8" stroke-width="2"/><path d="m193.0098 176c0-2.209-1.791-4-4-4s-4 1.791-4 4 1.791 4 4 4 4-1.791 4-4" fill="#e5e6e8"/><path d="m193.0098 176c0-2.209-1.791-4-4-4s-4 1.791-4 4 1.791 4 4 4 4-1.791 4-4z" stroke="#e5e6e8" stroke-width="2"/><path d="m143.126 224c0-2.209-1.79-4-4-4-2.209 0-4 1.791-4 4s1.791 4 4 4c2.21 0 4-1.791 4-4" fill="#425066"/><path d="m143.126 224c0-2.209-1.79-4-4-4-2.209 0-4 1.791-4 4s1.791 4 4 4c2.21 0 4-1.791 4-4z" stroke="#425066" stroke-width="2"/><path d="m459.499 214.1431c0-2.209-1.791-4-4-4s-4 1.791-4 4 1.791 4 4 4 4-1.791 4-4" fill="#f5f6f7"/><path d="m459.499 214.1431c0-2.209-1.791-4-4-4s-4 1.791-4 4 1.791 4 4 4 4-1.791 4-4z" stroke="#e5e6e8" stroke-width="2"/><path d="m442.457 224.0186c0-2.209-1.791-4-4-4s-4 1.791-4 4 1.791 4 4 4 4-1.791 4-4" fill="#e5e6e8"/><path d="m442.457 224.0186c0-2.209-1.791-4-4-4s-4 1.791-4 4 1.791 4 4 4 4-1.791 4-4z" stroke="#e5e6e8" stroke-width="2"/><path d="m492.9307 118.041c0-2.209-1.791-4-4-4-2.21 0-4 1.791-4 4s1.79 4 4 4c2.209 0 4-1.791 4-4" fill="#ff6f00"/><path d="m492.9307 118.041c0-2.209-1.791-4-4-4-2.21 0-4 1.791-4 4s1.79 4 4 4c2.209 0 4-1.791 4-4z" stroke="#ff6f00" stroke-width="2"/><path d="m459.499 99.4565c0-2.209-1.791-4-4-4s-4 1.791-4 4 1.791 4 4 4 4-1.791 4-4" fill="#f5f6f7"/><path d="m459.499 99.4565c0-2.209-1.791-4-4-4s-4 1.791-4 4 1.791 4 4 4 4-1.791 4-4z" stroke="#425066" stroke-width="2"/><path d="m459.499 22.1421c0-2.209-1.791-4-4-4s-4 1.791-4 4 1.791 4 4 4 4-1.791 4-4" fill="#f5f6f7"/><path d="m459.499 22.1421c0-2.209-1.791-4-4-4s-4 1.791-4 4 1.791 4 4 4 4-1.791 4-4z" stroke="#e5e6e8" stroke-width="2"/><path d="m259.5205 291.2007c0-2.209-1.791-4-4-4s-4 1.791-4 4 1.791 4 4 4 4-1.791 4-4" fill="#f5f6f7"/><path d="m259.5205 291.2007c0-2.209-1.791-4-4-4s-4 1.791-4 4 1.791 4 4 4 4-1.791 4-4z" stroke="#e5e6e8" stroke-width="2"/><path d="m176.3818 243.2002c0-2.209-1.791-4-4-4s-4 1.791-4 4 1.791 4 4 4 4-1.791 4-4" fill="#f5f6f7"/><path d="m176.3818 243.2002c0-2.209-1.791-4-4-4s-4 1.791-4 4 1.791 4 4 4 4-1.791 4-4z" stroke="#ff6f00" stroke-width="2"/><path d="m386.3809 205.0488-6.929 4v-56l6.929-4z" fill="#3a485f"/><path d="m348.2754 127.0493-6.928 4 38.105 22 6.928-4z" fill="#f8f9fa"/><path d="m379.4521 209.0488-38.104-22v-56l38.104 22z" fill="#ced0d1"/><path d="m372.7646 177.186-24.729-14.277c-1.781-1.028-3.224-3.786-3.224-6.16v-15.402c0-2.373 1.443-3.465 3.224-2.437l24.729 14.278c1.78 1.028 3.224 3.786 3.224 6.159v15.402c0 2.374-1.444 3.465-3.224 2.437" fill="#e5e6e8"/><path d="m445.3857 171.0347-6.929 4v-56l6.929-4z" fill="#3a485f"/><path d="m407.2803 93.0352-6.928 4 38.105 22 6.928-4z" fill="#f8f9fa"/><path d="m438.457 175.0347-38.104-22v-56l38.104 22z" fill="#ced0d1"/><path d="m431.7695 143.1719-24.729-14.277c-1.781-1.028-3.224-3.786-3.224-6.16v-15.402c0-2.373 1.443-3.465 3.224-2.437l24.729 14.278c1.78 1.028 3.224 3.786 3.224 6.159v15.402c0 2.374-1.444 3.465-3.224 2.437" fill="#e5e6e8"/><path d="m365.6348 217.0186-6.928 4v-56l6.928-4z" fill="#3a485f"/><path d="m327.5303 139.019-6.929 4 38.106 22 6.927-4z" fill="#f8f9fa"/><path d="m358.707 221.0186-38.105-22v-56l38.105 22z" fill="#ced0d1"/><path d="m352.0186 189.1563-24.729-14.278c-1.781-1.028-3.224-3.785-3.224-6.159v-15.402c0-2.374 1.443-3.465 3.224-2.437l24.729 14.277c1.781 1.029 3.224 3.786 3.224 6.16v15.402c0 2.374-1.443 3.465-3.224 2.437" fill="#e5e6e8"/><path d="m344.8896 228.9888-6.929 4v-56l6.929-4z" fill="#3a485f"/><path d="m306.7842 150.9893-6.928 4 38.105 22 6.928-4z" fill="#f8f9fa"/><path d="m337.9609 232.9888-38.104-22v-56l38.104 22z" fill="#ced0d1"/><path d="m331.2734 201.1265-24.729-14.278c-1.781-1.028-3.224-3.785-3.224-6.159v-15.402c0-2.374 1.443-3.465 3.224-2.437l24.729 14.277c1.78 1.028 3.224 3.786 3.224 6.16v15.402c0 2.374-1.444 3.465-3.224 2.437" fill="#e5e6e8"/><path d="m324.1436 240.959-6.928 4v-56l6.928-4z" fill="#3a485f"/><path d="m286.0391 162.959-6.929 4 38.106 22 6.927-4z" fill="#f8f9fa"/><path d="m317.2158 244.959-38.105-22v-56l38.105 22z" fill="#ced0d1"/><path d="m310.5283 213.0962-24.729-14.277c-1.782-1.028-3.225-3.786-3.225-6.16v-15.402c0-2.373 1.443-3.465 3.225-2.437l24.729 14.278c1.78 1.028 3.224 3.786 3.224 6.159v15.402c0 2.374-1.444 3.465-3.224 2.437" fill="#e5e6e8"/><path d="m303.3984 252.9287-6.929 4v-56l6.929-4z" fill="#3a485f"/><path d="m265.293 174.9292-6.928 4 38.105 22 6.928-4z" fill="#f8f9fa"/><path d="m296.4697 256.9287-38.104-22v-56l38.104 22z" fill="#ced0d1"/><path d="m289.7822 225.0664-24.729-14.278c-1.781-1.028-3.224-3.785-3.224-6.159v-15.402c0-2.374 1.443-3.465 3.224-2.437l24.729 14.277c1.78 1.028 3.224 3.786 3.224 6.16v15.402c0 2.374-1.444 3.465-3.224 2.437" fill="#e5e6e8"/><path d="m282.6523 264.8989-6.928 4v-56l6.928-4z" fill="#3a485f"/><path d="m244.5479 186.8994-6.929 4 38.106 22 6.927-4z" fill="#f8f9fa"/><path d="m275.7246 268.8989-38.105-22v-56l38.105 22z" fill="#ced0d1"/><path d="m269.0371 237.0366-24.729-14.278c-1.781-1.028-3.224-3.785-3.224-6.159v-15.402c0-2.374 1.443-3.465 3.224-2.437l24.729 14.277c1.78 1.028 3.224 3.786 3.224 6.16v15.401c0 2.375-1.444 3.466-3.224 2.438" fill="#e5e6e8"/><path d="m386.3809 129.1006-6.929 4v-56l6.929-4z" fill="#3a485f"/><path d="m348.2754 51.1011-6.928 4 38.105 22 6.928-4z" fill="#f8f9fa"/><path d="m379.4521 133.1006-38.104-22v-56l38.104 22z" fill="#ced0d1"/><path d="m372.7646 101.2383-24.729-14.278c-1.781-1.028-3.224-3.785-3.224-6.159v-15.402c0-2.374 1.443-3.465 3.224-2.437l24.729 14.277c1.78 1.028 3.224 3.786 3.224 6.16v15.402c0 2.374-1.444 3.465-3.224 2.437" fill="#e5e6e8"/><path d="m365.6348 141.0708-6.928 4v-56l6.928-4z" fill="#3a485f"/><path d="m327.5303 63.0713-6.929 4 38.106 22 6.927-4z" fill="#f8f9fa"/><path d="m358.707 145.0708-38.105-22v-56l38.105 22z" fill="#ced0d1"/><path d="m352.0186 113.208-24.729-14.277c-1.781-1.028-3.224-3.786-3.224-6.16v-15.402c0-2.373 1.443-3.465 3.224-2.437l24.729 14.278c1.781 1.028 3.224 3.786 3.224 6.159v15.402c0 2.374-1.443 3.465-3.224 2.437" fill="#e5e6e8"/><path d="m344.8896 153.041-6.929 4v-56l6.929-4z" fill="#3a485f"/><path d="m306.7842 75.041-6.928 4 38.105 22 6.928-4z" fill="#f8f9fa"/><path d="m337.9609 157.041-38.104-22v-56l38.104 22z" fill="#ced0d1"/><path d="m331.2734 125.1782-24.729-14.277c-1.781-1.029-3.224-3.786-3.224-6.16v-15.402c0-2.374 1.443-3.465 3.224-2.437l24.729 14.277c1.78 1.029 3.224 3.786 3.224 6.16v15.402c0 2.374-1.444 3.465-3.224 2.437" fill="#e5e6e8"/><path d="m324.1436 165.0107-6.928 4v-56l6.928-4z" fill="#3a485f"/><path d="m286.0391 87.0112-6.929 4 38.106 22 6.927-4z" fill="#f8f9fa"/><path d="m317.2158 169.0107-38.105-22v-56l38.105 22z" fill="#ced0d1"/><path d="m310.5283 137.1484-24.729-14.278c-1.782-1.028-3.225-3.785-3.225-6.159v-15.402c0-2.374 1.443-3.465 3.225-2.437l24.729 14.277c1.78 1.028 3.224 3.786 3.224 6.16v15.402c0 2.374-1.444 3.465-3.224 2.437" fill="#e5e6e8"/><path d="m303.3984 176.981-6.929 4v-56l6.929-4z" fill="#3a485f"/><path d="m265.293 98.9814-6.928 4 38.105 22 6.928-4z" fill="#f8f9fa"/><path d="m296.4697 180.981-38.104-22v-56l38.104 22z" fill="#ced0d1"/><path d="m289.7822 149.1182-24.729-14.277c-1.781-1.028-3.224-3.786-3.224-6.16v-15.402c0-2.373 1.443-3.465 3.224-2.437l24.729 14.278c1.78 1.028 3.224 3.786 3.224 6.159v15.402c0 2.374-1.444 3.465-3.224 2.437" fill="#e5e6e8"/><path d="m206.3906 145.0679-6.929 4v-56l6.929-4z" fill="#3a485f"/><path d="m168.2852 67.0684-6.928 4 38.105 22 6.928-4z" fill="#f8f9fa"/><path d="m199.4619 149.0679-38.104-22v-56l38.104 22z" fill="#ced0d1"/><path d="m192.7744 117.2056-24.729-14.278c-1.781-1.028-3.224-3.785-3.224-6.159v-15.402c0-2.374 1.443-3.465 3.224-2.437l24.729 14.277c1.78 1.028 3.224 3.786 3.224 6.16v15.402c0 2.374-1.444 3.465-3.224 2.437" fill="#e5e6e8"/><path d="m263.3818 140.2231c0-5.523 4.478-10 10-10 5.523 0 10 4.477 10 10s-4.477 10-10 10c-5.522 0-10-4.477-10-10" fill="#ff6f00"/><g stroke-width="2"><path d="m271.293 93.9814c-1.821-1.052-3.614-1.943-5.37-2.677" stroke="#ff6f00"/><path d="m258.5928 89.0923c-12.526-2.249-22.162 4.337-25.234 17.636" stroke="#ff6f00" stroke-dasharray="11.498 7.665"/><path d="m232.6895 110.4922c-.242 1.887-.367 3.885-.367 5.989m77.9421 44.9998c0-1.966-.109-3.966-.321-5.988" stroke="#ff6f00"/><path d="m308.6045 147.4893c-4.062-17.873-15.194-36.283-29.074-47.745" stroke="#ff6f00" stroke-dasharray="12.178 8.118"/><path d="m276.3184 97.2534c-1.645-1.194-3.322-2.289-5.025-3.272m-.0004 89.9991c1.822 1.052 3.615 1.943 5.37 2.677" stroke="#ff6f00"/><path d="m283.9941 188.8696c12.525 2.249 22.161-4.337 25.234-17.636" stroke="#ff6f00" stroke-dasharray="11.498 7.665"/><path d="m309.8975 167.4697c.242-1.887.367-3.885.367-5.989m-77.9422-44.9997c0 1.966.109 3.966.321 5.988" stroke="#ff6f00"/><path d="m233.9814 130.4727c4.062 17.873 15.195 36.284 29.074 47.745" stroke="#ff6f00" stroke-dasharray="12.178 8.118"/><path d="m266.2676 180.7085c1.646 1.194 3.323 2.289 5.025 3.272" stroke="#ff6f00"/></g></g></svg>